<?xml version="1.0" encoding="utf-8"?>
<!-- Generator: Adobe Illustrator 23.0.1, SVG Export Plug-In . SVG Version: 6.00 Build 0)  -->
<svg version="1.1" id="Layer_1" height="2rem" width="2rem" xmlns="http://www.w3.org/2000/svg" xmlns:xlink="http://www.w3.org/1999/xlink" x="0px" y="0px"
	 viewBox="0 0 240 240" enable-background="new 0 0 240 240" xml:space="preserve">
<g>
	<g>
		<g>
			<path fill="#853F38" d="M103.3,138c0,0-20.3,13.1-9.3,33c11,19.9,87.2,14.5,48-33C109.7,98.7,103.3,138,103.3,138z"/>
		</g>
		<g>
			<path fill="#853F38" d="M177.5,87.3c0,0-8.8,10.8-7,21.7c2.5,15.6-20.7,36.2-44.5,29.4c-23.8-6.8,1.8-52.4,1.8-52.4L177.5,87.3z"
				/>
			<path fill="#853F38" d="M66.3,87.3c0,0,8.8,10.8,7,21.7c-2.5,15.6,20.7,36.2,44.5,29.4c23.8-6.8-1.8-52.4-1.8-52.4L66.3,87.3z"/>
			<path fill="#A9534F" d="M126.8,121.5c11,0.2,21.9-1.8,31.7-7c5.2-2.7,8.8-6.5,11.9-10.7c1-8.8,7.1-16.4,7.1-16.4L127.7,86
				c0,0-10.8,19.4-11.8,34.7C119.5,121.2,123.2,121.4,126.8,121.5z"/>
			<path fill="#A9534F" d="M73.6,107.1c16.2,8.8,35.2,14.1,53.2,14.3c0.4,0,0.8,0,1.2,0C127.3,106,116.1,86,116.1,86l-49.8,1.4
				C66.3,87.3,74.1,96.9,73.6,107.1z"/>
		</g>
	</g>
	<g>
		<g>
			<path fill="#FFAC9D" d="M148.5,160.6c-11.2-6.3-8.2-36.6-8.2-36.6l-16.8,1.1V124l-1.8,0.6L120,124v1.1l-16.8-1.1
				c0,0,3.1,30.3-8.2,36.6c-11.2,6.3-80.1,9.4-73,79.5H120h3.6h97.9C228.6,170,159.7,166.8,148.5,160.6z"/>
			<path fill="#E08880" d="M100.8,152.7c13.4-2.1,26.8-4.2,40.2-6.3c-1.9-10.5-0.7-22.4-0.7-22.4l-16.8,1.1V124l-1.8,0.6L120,124
				v1.1l-16.8-1.1C103.2,124,105,141.6,100.8,152.7z"/>
		</g>
		<g>
			<path fill="#438584" d="M171.3,166c-9.8,9.1-24.3,15.4-40.8,17.1l-8.9,32.9l-4.7-32.6c-17.9-1.1-33.7-7.6-44.2-17.3
				c-23.3,7.7-57.3,24.2-52.2,74.1h99.7h3.7h99.7C228.6,190.2,194.6,173.6,171.3,166z"/>
			<g>
				<path fill="#5CA9A5" d="M118.1,191.7l-1.2-8.4c-17.9-1.1-33.7-7.6-44.2-17.3c-4,1.3-8.1,2.9-12.3,4.8
					C68.6,182.3,91.1,190.8,118.1,191.7z"/>
				<path fill="#5CA9A5" d="M185,171.4c-4.7-2.2-9.3-4-13.7-5.4c-9.8,9.1-24.3,15.4-40.8,17.1l-2.3,8.6
					C154.5,190.7,176.5,182.5,185,171.4z"/>
			</g>
			<path fill="#5CA9A5" d="M119.6,223.9c0,2.1,1.7,3.8,3.7,3.8c2,0,3.7-1.7,3.7-3.8s-1.7-3.8-3.7-3.8
				C121.2,220.1,119.6,221.8,119.6,223.9z"/>
		</g>
	</g>
	<g>
		<g>
			<g>
				<path fill="#E08880" d="M89,79.6c-3.3-10.5-11.1-8.1-11.9-7.8c-0.8,0.1-8.9,1.3-7.5,12.3c1.4,11,7.6,17,13.5,15.2
					C89.1,98.3,92.3,90.2,89,79.6z"/>
				<path fill="#E08880" d="M154.9,79.6c3.3-10.5,11.1-8.1,11.9-7.8c0.8,0.1,8.9,1.3,7.5,12.3c-1.4,11-7.6,17-13.5,15.2
					C154.7,98.3,151.6,90.2,154.9,79.6z"/>
				<path fill="#FFAC9D" d="M80.9,63.7c4.1-46.1,38.2-43.5,41.5-43.2c3.2-0.3,37.4-2.9,41.5,43.2c4.1,46.4-16,76.6-41.5,75
					C97,140.3,76.8,110,80.9,63.7z"/>
			</g>
			<g>
				<path fill="#A9534F" d="M79.5,72.4c0,0-2.2,60.6,32.6,67.3c34.8,6.8,56.4-23.1,53.3-70.5l-4.4-0.5c0,0-2.9,47.9-13.4,48.4
					c-10.6,0.5,5.1-14.9-15.2-15.8c-20.3-0.9-30.3-7.8-31.9,9.7c-1.1,11.8-15.2-8.4-17-39.5C81.7,40.3,79.5,72.4,79.5,72.4z"/>
				<path fill="#853F38" d="M85.2,85.4c-0.8-4.3-1.4-9-1.7-13.9c-1.8-31.2-4,0.9-4,0.9S79.3,79,80.2,88
					C81.9,87.2,83.5,86.3,85.2,85.4z"/>
				<path fill="#853F38" d="M165.5,85.8c0.3-5.2,0.3-10.8,0-16.6l-4.4-0.5c0,0-0.4,6.6-1.4,14.8C161.6,84.4,163.5,85.1,165.5,85.8z"
					/>
			</g>
		</g>
		<g>
			<g>
				<path fill="#E08880" d="M128.3,69.1c1,4.3,1.6,8.5,2.2,12.8c0.3,2.2,0.5,4.3,0.7,6.5c0.2,2.2,0.4,4.3,0.5,6.5l0,0.4l-0.3,0.2
					c-1.3,0.9-2.7,1.7-4,2.5c-1.4,0.8-2.7,1.6-4.1,2.4c1.2-1.1,2.4-2.1,3.7-3.1c1.2-1,2.5-2,3.8-2.9l-0.3,0.6
					c-0.3-2.1-0.6-4.3-0.8-6.4c-0.3-2.1-0.5-4.3-0.7-6.5C128.5,77.7,128.3,73.4,128.3,69.1z"/>
			</g>
			<g>
				<path fill="#352836" d="M154.6,65.6c-1.8-1.2-3.5-2.3-5.3-3.2c-1.8-0.9-3.6-1.5-5.4-1.6c-1.8-0.2-3.6,0.1-5.4,0.9
					c-1.8,0.7-3.5,1.9-5.3,3.1c0.9-2,2.4-3.7,4.3-4.9c1.9-1.3,4.3-1.9,6.7-1.7c2.4,0.2,4.5,1.2,6.3,2.6
					C152.2,62,153.7,63.7,154.6,65.6z"/>
			</g>
			<g>
				<path fill="#352836" d="M112.1,65.6c-1.8-1.2-3.5-2.3-5.3-3.2c-1.8-0.9-3.6-1.5-5.4-1.6c-1.8-0.2-3.6,0.1-5.4,0.9
					c-1.8,0.7-3.5,1.9-5.3,3.1c0.9-2,2.4-3.7,4.3-4.9c1.9-1.3,4.3-1.9,6.7-1.7c2.4,0.2,4.5,1.2,6.3,2.6
					C109.7,62,111.1,63.7,112.1,65.6z"/>
			</g>
			<g>
				<path fill="#352836" d="M110.7,82.3c-0.5-1.9-1.2-3.8-2.4-5.3c-1.2-1.5-2.9-2.4-4.8-2.3c-0.9-0.1-1.8,0.1-2.7,0.4
					c-0.8,0.4-1.5,1-2.1,1.7c-1.1,1.5-1.5,3.5-1.7,5.5c-0.3-2-0.2-4.1,0.9-6c0.5-0.9,1.4-1.7,2.4-2.2c1-0.4,2.1-0.6,3.2-0.6
					c2.2,0,4.4,1.2,5.5,3C110.3,78.2,110.7,80.3,110.7,82.3z"/>
			</g>
			<g>
				<path fill="#352836" d="M149,81.7c-0.5-1.9-1.2-3.8-2.4-5.3c-1.2-1.5-2.9-2.4-4.8-2.3c-0.9-0.1-1.8,0.1-2.7,0.4
					c-0.8,0.4-1.5,1-2.1,1.7c-1.1,1.5-1.5,3.5-1.7,5.5c-0.3-2-0.2-4.1,0.9-6c0.5-0.9,1.4-1.7,2.4-2.2c1-0.4,2.1-0.6,3.2-0.6
					c2.2,0,4.4,1.2,5.5,3C148.5,77.6,149,79.7,149,81.7z"/>
			</g>
			<path fill="#FFFFFF" d="M139.8,108.7c-8.1,8.1-21.9,7.7-32.3,0.4"/>
		</g>
		<g>
			<g>
				<path fill="#853F38" d="M123,27.2c0,0-24.7-4.5-28.6,11.3c-4,15.8,1.8,37.1-16.3,33.9c0,0-13.1,2.7-4.7,24
					c0,0-24.8-24.4-10.3-42C75,40,70.2,8.7,99.2,3.7C128.3-1.3,123,21.3,123,27.2z"/>
			</g>
			<g>
				<path fill="#A9534F" d="M123,27.2c0,0-24.7-4.5-28.6,11.3c-4,15.8,1.8,37.1-16.3,33.9c0,0-13.1,2.7-4.7,24
					c0,0-24.8-24.4-10.3-42C75,40,70.2,8.7,99.2,3.7C128.3-1.3,123,21.3,123,27.2z"/>
			</g>
			<g>
				<path fill="#A9534F" d="M120.8,27.2c0,0,24.7-4.5,28.6,11.3c4,15.8-1.8,37.1,16.3,33.9c0,0,13.1,2.7,4.7,24
					c0,0,24.8-24.4,10.3-42c-11.9-14.4-7-45.7-36.1-50.6C115.5-1.3,120.8,21.3,120.8,27.2z"/>
			</g>
			<g>
				<g>
					<path fill="#A9534F" d="M120.4,24c3.4-0.1,6.7,0.2,10,0.8c3.3,0.6,6.6,1.5,9.7,3.1c3.1,1.5,6,3.8,7.8,6.8
						c0.9,1.5,1.5,3.2,1.9,4.9c0.3,1.7,0.4,3.3,0.5,5c0.4,6.6-0.5,13.2,0,19.6c0.1,1.6,0.3,3.2,0.8,4.7c0.4,1.5,1.1,2.9,2.2,4
						c1.1,1.1,2.5,1.8,4,2.1c1.5,0.4,3.2,0.4,4.8,0.3l0,0l0,0c1,0.1,1.9,0.4,2.9,0.8c0.9,0.4,1.8,0.8,2.6,1.5
						c0.8,0.6,1.4,1.4,1.8,2.3c0.4,0.9,0.5,1.9,0.5,2.9c0-1-0.2-1.9-0.7-2.8c-0.4-0.9-1.1-1.6-1.9-2.1c-0.8-0.5-1.6-1-2.5-1.3
						c-0.9-0.3-1.8-0.5-2.8-0.6l0.1,0c-1.6,0.2-3.3,0.2-5-0.1c-1.7-0.3-3.3-1-4.6-2.2c-1.3-1.2-2.2-2.8-2.7-4.4
						c-0.6-1.6-0.8-3.3-1-4.9c-0.4-3.3-0.3-6.6-0.3-9.9c0-3.3,0-6.5-0.3-9.7c-0.1-1.6-0.3-3.2-0.6-4.7c-0.3-1.5-0.9-2.9-1.7-4.1
						c-1.6-2.5-4.1-4.4-6.9-5.8c-2.8-1.4-5.9-2.2-9-2.7c-3.1-0.5-6.4-0.8-9.5-0.7L120.4,24z"/>
				</g>
			</g>
		</g>
	</g>
</g>
</svg>
